<svg xmlns="http://www.w3.org/2000/svg" width="507" height="507" viewBox="-73 0 507 507">
  <!-- Square, centered crop for favicons and compact uses. -->
  <path fill="#0c1c3b" d="
    M 1 320
    V 18
    C 1 8 8 1 18 1
    H 220
    C 251 1 283 15 307 38
    C 313 44 312 49 304 54
    L 219 110
    C 210 116 206 120 198 116
    C 189 111 181 111 161 111
    H 140
    C 126 111 118 119 118 131
    L 117 220
    C 117 226 115 229 110 234
    L 26 313
    C 14 324 8 329 4 325
    C 2 324 1 322 1 320
    Z

    M 1 507
    V 374
    C 1 368 3 365 8 360
    L 90 279
    C 103 267 115 253 127 250
    C 137 247 149 247 162 247
    C 188 247 197 246 207 241
    C 211 239 214 238 218 238
    C 225 238 238 246 250 254
    L 298 284
    C 304 288 306 292 302 298
    C 282 321 253 340 220 350
    C 201 356 194 357 160 358
    H 138
    C 126 358 118 365 118 376
    L 117 422
    C 117 456 117 473 115 478
    C 110 490 100 498 88 500
    C 68 503 41 505 1 507
    Z"/>
  <path fill="#2db7d4" d="
    M 319 275
    C 315 276 310 273 299 266
    L 241 229
    C 232 223 228 219 230 211
    C 239 189 240 172 234 150
    C 231 141 231 136 236 132
    L 303 88
    C 315 80 321 76 323 76
    C 330 74 337 84 344 102
    C 353 124 357 151 356 178
    C 356 205 350 230 338 250
    C 330 266 323 274 319 275
    Z"/>
</svg>
